<svg width="40" height="40" viewBox="0 0 40 40" fill="none" xmlns="http://www.w3.org/2000/svg">
<rect x="0.75" y="0.75" width="38.5" height="38.5" stroke="#2F2F2F" stroke-opacity="0.5" stroke-width="1.5"/>
<path d="M29.1667 13H10.8333C9.82221 13 9 13.8222 9 14.8333V27.6667C9 28.6778 9.82221 29.5 10.8333 29.5H29.1667C30.1778 29.5 31 28.6778 31 27.6667V14.8333C31 13.8222 30.1778 13 29.1667 13ZM10.8333 13.9167H29.1667C29.2342 13.9167 29.2938 13.9413 29.3571 13.9552C27.7699 15.4078 22.5069 20.2226 20.6652 21.882C20.521 22.0118 20.2888 22.1667 20 22.1667C19.7113 22.1667 19.479 22.0118 19.3345 21.8816C17.4929 20.2224 12.2296 15.4074 10.6426 13.9553C10.7061 13.9414 10.7658 13.9167 10.8333 13.9167ZM9.91665 27.6667V14.8333C9.91665 14.7435 9.94372 14.6621 9.96796 14.58C11.1828 15.6919 14.8551 19.0513 17.2362 21.2167C14.8628 23.2554 11.1896 26.7379 9.96508 27.9056C9.94346 27.8276 9.91665 27.7514 9.91665 27.6667ZM29.1667 28.5833H10.8333C10.7601 28.5833 10.695 28.5578 10.6267 28.5415C11.892 27.3353 15.5886 23.8327 17.9203 21.838C18.2242 22.1137 18.5019 22.3651 18.7208 22.5624C19.0986 22.9034 19.5407 23.0833 20 23.0833C20.4593 23.0833 20.9014 22.9034 21.2788 22.5628C21.4977 22.3655 21.7756 22.1138 22.0797 21.838C24.4116 23.8325 28.1076 27.3348 29.3733 28.5415C29.305 28.5578 29.24 28.5833 29.1667 28.5833ZM30.0833 27.6667C30.0833 27.7513 30.0565 27.8276 30.035 27.9056C28.81 26.7373 25.1372 23.2552 22.7638 21.2167C25.1451 19.0514 28.8168 15.6922 30.032 14.5799C30.0563 14.662 30.0833 14.7435 30.0833 14.8333V27.6667Z" fill="#2F2F2F"/>
</svg>
