<svg width="40" height="40" viewBox="0 0 40 40" fill="none" xmlns="http://www.w3.org/2000/svg">
<rect x="0.75" y="0.75" width="38.5" height="38.5" stroke="#2F2F2F" stroke-opacity="0.5" stroke-width="1.5"/>
<path d="M16.5719 16.0614L16.5714 16.061M16.5719 16.0614L16.5719 16.0614L16.5714 16.061M16.5719 16.0614L16.5714 16.061M16.5719 16.0614L16.5714 16.061M21.151 16.8843V18.0298L21.991 17.251C22.8277 16.4751 24.2555 15.9579 25.9454 15.9579C28.5435 15.9579 29.9134 16.9128 30.6726 18.208C31.4629 19.5565 31.6428 21.3572 31.6428 23.1323V31.6428H26.9488V24.1077C26.9488 23.0042 26.9189 21.9593 26.5798 21.1938C26.4009 20.7899 26.1301 20.4459 25.7281 20.2099C25.3328 19.9777 24.852 19.8742 24.2913 19.8735H24.2907C23.7268 19.8735 23.2367 19.9686 22.8234 20.1772C22.404 20.3888 22.0924 20.7029 21.8695 21.0918C21.4408 21.8395 21.3443 22.8605 21.3443 23.9748V31.6428H16.6525V16.1423H21.151V16.8843ZM11.094 13.8399C9.5861 13.8399 8.35722 12.6104 8.35712 11.0986C8.35831 9.58624 9.58754 8.35706 11.094 8.35706C12.6011 8.35706 13.8296 9.58641 13.8296 11.0984C13.8296 12.6105 12.6012 13.8399 11.094 13.8399ZM8.7457 16.1423H13.442V31.6428H8.7457V16.1423Z" stroke="#2F2F2F"/>
</svg>
